<?xml version="1.0" encoding="UTF-8" standalone="no"?>
<!DOCTYPE svg PUBLIC "-//W3C//DTD SVG 1.1//EN"
 "http://www.w3.org/Graphics/SVG/1.1/DTD/svg11.dtd">
<!-- Generated by graphviz version 14.1.2 (0)
 -->
<!-- Title: AiRouting Pages: 1 -->
<svg width="1509pt" height="1423pt"
 viewBox="0.00 0.00 1509.00 1423.00" xmlns="http://www.w3.org/2000/svg" xmlns:xlink="http://www.w3.org/1999/xlink">
<g id="graph0" class="graph" transform="scale(1 1) rotate(0) translate(21.6 1401.25)">
<title>AiRouting</title>
<polygon fill="#f7f8fa" stroke="none" points="-21.6,21.6 -21.6,-1401.25 1487.01,-1401.25 1487.01,21.6 -21.6,21.6"/>
<text xml:space="preserve" text-anchor="middle" x="182" y="-1358.55" font-family="DejaVu Sans" font-size="18.00">the_bot AI routing and Web UI controls</text>
<!-- chat -->
<g id="node1" class="node">
<title>chat</title>
<path fill="#dceeff" stroke="#3f4b5b" d="M1318.41,-1349.9C1318.41,-1349.9 1161.75,-1349.9 1161.75,-1349.9 1155.75,-1349.9 1149.75,-1343.9 1149.75,-1337.9 1149.75,-1337.9 1149.75,-1309.25 1149.75,-1309.25 1149.75,-1303.25 1155.75,-1297.25 1161.75,-1297.25 1161.75,-1297.25 1318.41,-1297.25 1318.41,-1297.25 1324.41,-1297.25 1330.41,-1303.25 1330.41,-1309.25 1330.41,-1309.25 1330.41,-1337.9 1330.41,-1337.9 1330.41,-1343.9 1324.41,-1349.9 1318.41,-1349.9"/>
<text xml:space="preserve" text-anchor="middle" x="1240.08" y="-1333.2" font-family="DejaVu Sans" font-size="10.00" fill="#17202b">Chat AI entry</text>
<text xml:space="preserve" text-anchor="middle" x="1240.08" y="-1320.45" font-family="DejaVu Sans" font-size="10.00" fill="#17202b">!hokan &lt;text&gt; / !hermes &lt;text&gt;</text>
<text xml:space="preserve" text-anchor="middle" x="1240.08" y="-1307.7" font-family="DejaVu Sans" font-size="10.00" fill="#17202b">bot&#45;name conversation</text>
</g>
<!-- chat_service -->
<g id="node4" class="node">
<title>chat_service</title>
<path fill="#ffffff" stroke="#3f4b5b" d="M1313.53,-1256.25C1313.53,-1256.25 1166.62,-1256.25 1166.62,-1256.25 1160.62,-1256.25 1154.62,-1250.25 1154.62,-1244.25 1154.62,-1244.25 1154.62,-1215.6 1154.62,-1215.6 1154.62,-1209.6 1160.62,-1203.6 1166.62,-1203.6 1166.62,-1203.6 1313.53,-1203.6 1313.53,-1203.6 1319.53,-1203.6 1325.53,-1209.6 1325.53,-1215.6 1325.53,-1215.6 1325.53,-1244.25 1325.53,-1244.25 1325.53,-1250.25 1319.53,-1256.25 1313.53,-1256.25"/>
<text xml:space="preserve" text-anchor="middle" x="1240.08" y="-1239.55" font-family="DejaVu Sans" font-size="10.00" fill="#17202b">HermesAiService</text>
<text xml:space="preserve" text-anchor="middle" x="1240.08" y="-1226.8" font-family="DejaVu Sans" font-size="10.00" fill="#17202b">Build chat context</text>
<text xml:space="preserve" text-anchor="middle" x="1240.08" y="-1214.05" font-family="DejaVu Sans" font-size="10.00" fill="#17202b">Permit controlled log callbacks</text>
</g>
<!-- chat&#45;&gt;chat_service -->
<g id="edge1" class="edge">
<title>chat&#45;&gt;chat_service</title>
<path fill="none" stroke="#596575" d="M1240.08,-1296.99C1240.08,-1296.99 1240.08,-1265.29 1240.08,-1265.29"/>
<polygon fill="#596575" stroke="#596575" points="1242.6,-1265.29 1240.08,-1258.09 1237.56,-1265.29 1242.6,-1265.29"/>
</g>
<!-- dyn -->
<g id="node2" class="node">
<title>dyn</title>
<path fill="#dceeff" stroke="#3f4b5b" d="M1094.41,-1349.9C1094.41,-1349.9 961.75,-1349.9 961.75,-1349.9 955.75,-1349.9 949.75,-1343.9 949.75,-1337.9 949.75,-1337.9 949.75,-1309.25 949.75,-1309.25 949.75,-1303.25 955.75,-1297.25 961.75,-1297.25 961.75,-1297.25 1094.41,-1297.25 1094.41,-1297.25 1100.41,-1297.25 1106.41,-1303.25 1106.41,-1309.25 1106.41,-1309.25 1106.41,-1337.9 1106.41,-1337.9 1106.41,-1343.9 1100.41,-1349.9 1094.41,-1349.9"/>
<text xml:space="preserve" text-anchor="middle" x="1028.08" y="-1333.2" font-family="DejaVu Sans" font-size="10.00" fill="#17202b">Dynamic AI command entry</text>
<text xml:space="preserve" text-anchor="middle" x="1028.08" y="-1320.45" font-family="DejaVu Sans" font-size="10.00" fill="#17202b">!weather / !dynping / ...</text>
<text xml:space="preserve" text-anchor="middle" x="1028.08" y="-1307.7" font-family="DejaVu Sans" font-size="10.00" fill="#17202b">ai&#45;commands.json</text>
</g>
<!-- dyn_service -->
<g id="node5" class="node">
<title>dyn_service</title>
<path fill="#ffffff" stroke="#3f4b5b" d="M1116.53,-1256.25C1116.53,-1256.25 939.62,-1256.25 939.62,-1256.25 933.62,-1256.25 927.62,-1250.25 927.62,-1244.25 927.62,-1244.25 927.62,-1215.6 927.62,-1215.6 927.62,-1209.6 933.62,-1203.6 939.62,-1203.6 939.62,-1203.6 1116.53,-1203.6 1116.53,-1203.6 1122.53,-1203.6 1128.53,-1209.6 1128.53,-1215.6 1128.53,-1215.6 1128.53,-1244.25 1128.53,-1244.25 1128.53,-1250.25 1122.53,-1256.25 1116.53,-1256.25"/>
<text xml:space="preserve" text-anchor="middle" x="1028.08" y="-1239.55" font-family="DejaVu Sans" font-size="10.00" fill="#17202b">HermesAiCommandService</text>
<text xml:space="preserve" text-anchor="middle" x="1028.08" y="-1226.8" font-family="DejaVu Sans" font-size="10.00" fill="#17202b">Load dynamic command instructions</text>
<text xml:space="preserve" text-anchor="middle" x="1028.08" y="-1214.05" font-family="DejaVu Sans" font-size="10.00" fill="#17202b">Permit only configured callback tools</text>
</g>
<!-- dyn&#45;&gt;dyn_service -->
<g id="edge2" class="edge">
<title>dyn&#45;&gt;dyn_service</title>
<path fill="none" stroke="#596575" d="M1028.08,-1296.99C1028.08,-1296.99 1028.08,-1265.29 1028.08,-1265.29"/>
<polygon fill="#596575" stroke="#596575" points="1030.6,-1265.29 1028.08,-1258.09 1025.56,-1265.29 1030.6,-1265.29"/>
</g>
<!-- web -->
<g id="node3" class="node">
<title>web</title>
<path fill="#fff1cc" stroke="#3f4b5b" d="M529.91,-1343.53C529.91,-1343.53 448.25,-1343.53 448.25,-1343.53 442.25,-1343.53 436.25,-1337.53 436.25,-1331.53 436.25,-1331.53 436.25,-1315.63 436.25,-1315.63 436.25,-1309.63 442.25,-1303.63 448.25,-1303.63 448.25,-1303.63 529.91,-1303.63 529.91,-1303.63 535.91,-1303.63 541.91,-1309.63 541.91,-1315.63 541.91,-1315.63 541.91,-1331.53 541.91,-1331.53 541.91,-1337.53 535.91,-1343.53 529.91,-1343.53"/>
<text xml:space="preserve" text-anchor="middle" x="489.08" y="-1326.83" font-family="DejaVu Sans" font-size="10.00" fill="#17202b">Admin Web UI</text>
<text xml:space="preserve" text-anchor="middle" x="489.08" y="-1314.08" font-family="DejaVu Sans" font-size="10.00" fill="#17202b">Manage AI routes</text>
</g>
<!-- web_api -->
<g id="node6" class="node">
<title>web_api</title>
<path fill="#fff8e6" stroke="#3f4b5b" d="M542.29,-1249.88C542.29,-1249.88 435.88,-1249.88 435.88,-1249.88 429.88,-1249.88 423.88,-1243.88 423.88,-1237.88 423.88,-1237.88 423.88,-1221.98 423.88,-1221.98 423.88,-1215.98 429.88,-1209.98 435.88,-1209.98 435.88,-1209.98 542.29,-1209.98 542.29,-1209.98 548.29,-1209.98 554.29,-1215.98 554.29,-1221.98 554.29,-1221.98 554.29,-1237.88 554.29,-1237.88 554.29,-1243.88 548.29,-1249.88 542.29,-1249.88"/>
<text xml:space="preserve" text-anchor="middle" x="489.08" y="-1233.18" font-family="DejaVu Sans" font-size="10.00" fill="#17202b">bot&#45;web &#45;&gt; bot&#45;engine</text>
<text xml:space="preserve" text-anchor="middle" x="489.08" y="-1220.43" font-family="DejaVu Sans" font-size="10.00" fill="#17202b">Admin route API</text>
</g>
<!-- web&#45;&gt;web_api -->
<g id="edge23" class="edge">
<title>web&#45;&gt;web_api</title>
<path fill="none" stroke="#596575" d="M489.08,-1303.25C489.08,-1303.25 489.08,-1258.92 489.08,-1258.92"/>
<polygon fill="#596575" stroke="#596575" points="491.6,-1258.92 489.08,-1251.72 486.56,-1258.92 491.6,-1258.92"/>
</g>
<!-- chat_profile -->
<g id="node7" class="node">
<title>chat_profile</title>
<path fill="#dceeff" stroke="#3f4b5b" d="M1264.78,-914.05C1264.78,-914.05 1167.38,-914.05 1167.38,-914.05 1161.38,-914.05 1155.38,-908.05 1155.38,-902.05 1155.38,-902.05 1155.38,-886.15 1155.38,-886.15 1155.38,-880.15 1161.38,-874.15 1167.38,-874.15 1167.38,-874.15 1264.78,-874.15 1264.78,-874.15 1270.78,-874.15 1276.78,-880.15 1276.78,-886.15 1276.78,-886.15 1276.78,-902.05 1276.78,-902.05 1276.78,-908.05 1270.78,-914.05 1264.78,-914.05"/>
<text xml:space="preserve" text-anchor="middle" x="1216.08" y="-897.35" font-family="DejaVu Sans" font-size="10.00" fill="#17202b">Hermes chat profile</text>
<text xml:space="preserve" text-anchor="middle" x="1216.08" y="-884.6" font-family="DejaVu Sans" font-size="10.00" fill="#17202b">Normal chat AI route</text>
</g>
<!-- chat_service&#45;&gt;chat_profile -->
<g id="edge3" class="edge">
<title>chat_service&#45;&gt;chat_profile</title>
<path fill="none" stroke="#596575" d="M1236.32,-1203.29C1236.32,-1203.29 1236.32,-922.86 1236.32,-922.86"/>
<polygon fill="#596575" stroke="#596575" points="1238.84,-922.86 1236.32,-915.66 1233.8,-922.86 1238.84,-922.86"/>
</g>
<!-- ai_profile -->
<g id="node8" class="node">
<title>ai_profile</title>
<path fill="#dceeff" stroke="#3f4b5b" d="M864.41,-914.05C864.41,-914.05 731.75,-914.05 731.75,-914.05 725.75,-914.05 719.75,-908.05 719.75,-902.05 719.75,-902.05 719.75,-886.15 719.75,-886.15 719.75,-880.15 725.75,-874.15 731.75,-874.15 731.75,-874.15 864.41,-874.15 864.41,-874.15 870.41,-874.15 876.41,-880.15 876.41,-886.15 876.41,-886.15 876.41,-902.05 876.41,-902.05 876.41,-908.05 870.41,-914.05 864.41,-914.05"/>
<text xml:space="preserve" text-anchor="middle" x="798.08" y="-897.35" font-family="DejaVu Sans" font-size="10.00" fill="#17202b">Hermes ai&#45;command profile</text>
<text xml:space="preserve" text-anchor="middle" x="798.08" y="-884.6" font-family="DejaVu Sans" font-size="10.00" fill="#17202b">Dynamic command route</text>
</g>
<!-- dyn_service&#45;&gt;ai_profile -->
<g id="edge4" class="edge">
<title>dyn_service&#45;&gt;ai_profile</title>
<path fill="none" stroke="#596575" d="M927.47,-1230C862.18,-1230 789.21,-1230 789.21,-1230 789.21,-1230 789.21,-923.07 789.21,-923.07"/>
<polygon fill="#596575" stroke="#596575" points="791.73,-923.07 789.21,-915.87 786.69,-923.07 791.73,-923.07"/>
</g>
<!-- profile_settings -->
<g id="node21" class="node">
<title>profile_settings</title>
<path fill="#fff1cc" stroke="#3f4b5b" d="M984.16,-1162.6C984.16,-1162.6 814,-1162.6 814,-1162.6 808,-1162.6 802,-1156.6 802,-1150.6 802,-1150.6 802,-1121.95 802,-1121.95 802,-1115.95 808,-1109.95 814,-1109.95 814,-1109.95 984.16,-1109.95 984.16,-1109.95 990.16,-1109.95 996.16,-1115.95 996.16,-1121.95 996.16,-1121.95 996.16,-1150.6 996.16,-1150.6 996.16,-1156.6 990.16,-1162.6 984.16,-1162.6"/>
<text xml:space="preserve" text-anchor="middle" x="899.08" y="-1145.9" font-family="DejaVu Sans" font-size="10.00" fill="#17202b">Per&#45;profile controls</text>
<text xml:space="preserve" text-anchor="middle" x="899.08" y="-1133.15" font-family="DejaVu Sans" font-size="10.00" fill="#17202b">chat / coder / ai&#45;command</text>
<text xml:space="preserve" text-anchor="middle" x="899.08" y="-1120.4" font-family="DejaVu Sans" font-size="10.00" fill="#17202b">Provider, model, API mode, timeout</text>
</g>
<!-- web_api&#45;&gt;profile_settings -->
<g id="edge24" class="edge">
<title>web_api&#45;&gt;profile_settings</title>
<path fill="none" stroke="#596575" d="M554.53,-1240C662.18,-1240 864.81,-1240 864.81,-1240 864.81,-1240 864.81,-1171.7 864.81,-1171.7"/>
<polygon fill="#596575" stroke="#596575" points="867.33,-1171.7 864.81,-1164.5 862.29,-1171.7 867.33,-1171.7"/>
</g>
<!-- local_profile -->
<g id="node22" class="node">
<title>local_profile</title>
<path fill="#fff1cc" stroke="#3f4b5b" d="M176.16,-1162.6C176.16,-1162.6 12,-1162.6 12,-1162.6 6,-1162.6 0,-1156.6 0,-1150.6 0,-1150.6 0,-1121.95 0,-1121.95 0,-1115.95 6,-1109.95 12,-1109.95 12,-1109.95 176.16,-1109.95 176.16,-1109.95 182.16,-1109.95 188.16,-1115.95 188.16,-1121.95 188.16,-1121.95 188.16,-1150.6 188.16,-1150.6 188.16,-1156.6 182.16,-1162.6 176.16,-1162.6"/>
<text xml:space="preserve" text-anchor="middle" x="94.08" y="-1145.9" font-family="DejaVu Sans" font-size="10.00" fill="#17202b">Direct local profile controls</text>
<text xml:space="preserve" text-anchor="middle" x="94.08" y="-1133.15" font-family="DejaVu Sans" font-size="10.00" fill="#17202b">Ollama / LM Studio / vLLM</text>
<text xml:space="preserve" text-anchor="middle" x="94.08" y="-1120.4" font-family="DejaVu Sans" font-size="10.00" fill="#17202b">Base URL, model, context, API key</text>
</g>
<!-- web_api&#45;&gt;local_profile -->
<g id="edge25" class="edge">
<title>web_api&#45;&gt;local_profile</title>
<path fill="none" stroke="#596575" d="M423.41,-1237C311.09,-1237 94.08,-1237 94.08,-1237 94.08,-1237 94.08,-1171.72 94.08,-1171.72"/>
<polygon fill="#596575" stroke="#596575" points="96.6,-1171.72 94.08,-1164.52 91.56,-1171.72 96.6,-1171.72"/>
</g>
<!-- fallback_settings -->
<g id="node23" class="node">
<title>fallback_settings</title>
<path fill="#fff1cc" stroke="#3f4b5b" d="M381.66,-1162.6C381.66,-1162.6 226.5,-1162.6 226.5,-1162.6 220.5,-1162.6 214.5,-1156.6 214.5,-1150.6 214.5,-1150.6 214.5,-1121.95 214.5,-1121.95 214.5,-1115.95 220.5,-1109.95 226.5,-1109.95 226.5,-1109.95 381.66,-1109.95 381.66,-1109.95 387.66,-1109.95 393.66,-1115.95 393.66,-1121.95 393.66,-1121.95 393.66,-1150.6 393.66,-1150.6 393.66,-1156.6 387.66,-1162.6 381.66,-1162.6"/>
<text xml:space="preserve" text-anchor="middle" x="304.08" y="-1145.9" font-family="DejaVu Sans" font-size="10.00" fill="#17202b">Shared local fallback controls</text>
<text xml:space="preserve" text-anchor="middle" x="304.08" y="-1133.15" font-family="DejaVu Sans" font-size="10.00" fill="#17202b">Enable, runner, endpoint, model,</text>
<text xml:space="preserve" text-anchor="middle" x="304.08" y="-1120.4" font-family="DejaVu Sans" font-size="10.00" fill="#17202b">context, API key, validate</text>
</g>
<!-- web_api&#45;&gt;fallback_settings -->
<g id="edge26" class="edge">
<title>web_api&#45;&gt;fallback_settings</title>
<path fill="none" stroke="#596575" d="M423.6,-1223C370.38,-1223 304.08,-1223 304.08,-1223 304.08,-1223 304.08,-1171.48 304.08,-1171.48"/>
<polygon fill="#596575" stroke="#596575" points="306.6,-1171.48 304.08,-1164.28 301.56,-1171.48 306.6,-1171.48"/>
</g>
<!-- fallback_toggle -->
<g id="node24" class="node">
<title>fallback_toggle</title>
<path fill="#fff1cc" stroke="#3f4b5b" d="M546.04,-1156.23C546.04,-1156.23 432.13,-1156.23 432.13,-1156.23 426.13,-1156.23 420.13,-1150.23 420.13,-1144.23 420.13,-1144.23 420.13,-1128.33 420.13,-1128.33 420.13,-1122.33 426.13,-1116.33 432.13,-1116.33 432.13,-1116.33 546.04,-1116.33 546.04,-1116.33 552.04,-1116.33 558.04,-1122.33 558.04,-1128.33 558.04,-1128.33 558.04,-1144.23 558.04,-1144.23 558.04,-1150.23 552.04,-1156.23 546.04,-1156.23"/>
<text xml:space="preserve" text-anchor="middle" x="489.08" y="-1139.53" font-family="DejaVu Sans" font-size="10.00" fill="#17202b">Per OpenAI profile</text>
<text xml:space="preserve" text-anchor="middle" x="489.08" y="-1126.78" font-family="DejaVu Sans" font-size="10.00" fill="#17202b">Allow local LLM fallback</text>
</g>
<!-- web_api&#45;&gt;fallback_toggle -->
<g id="edge27" class="edge">
<title>web_api&#45;&gt;fallback_toggle</title>
<path fill="none" stroke="#596575" d="M489.08,-1209.6C489.08,-1209.6 489.08,-1165.27 489.08,-1165.27"/>
<polygon fill="#596575" stroke="#596575" points="491.6,-1165.27 489.08,-1158.07 486.56,-1165.27 491.6,-1165.27"/>
</g>
<!-- override_toggle -->
<g id="node25" class="node">
<title>override_toggle</title>
<path fill="#ffd6a8" stroke="#c05a00" stroke-width="2" d="M764.41,-1162.6C764.41,-1162.6 595.75,-1162.6 595.75,-1162.6 589.75,-1162.6 583.75,-1156.6 583.75,-1150.6 583.75,-1150.6 583.75,-1121.95 583.75,-1121.95 583.75,-1115.95 589.75,-1109.95 595.75,-1109.95 595.75,-1109.95 764.41,-1109.95 764.41,-1109.95 770.41,-1109.95 776.41,-1115.95 776.41,-1121.95 776.41,-1121.95 776.41,-1150.6 776.41,-1150.6 776.41,-1156.6 770.41,-1162.6 764.41,-1162.6"/>
<text xml:space="preserve" text-anchor="middle" x="680.08" y="-1145.9" font-family="DejaVu Sans" font-size="10.00" fill="#17202b">Emergency local override toggle</text>
<text xml:space="preserve" text-anchor="middle" x="680.08" y="-1133.15" font-family="DejaVu Sans" font-size="10.00" fill="#17202b">Forces chat + coder + ai&#45;command</text>
<text xml:space="preserve" text-anchor="middle" x="680.08" y="-1120.4" font-family="DejaVu Sans" font-size="10.00" fill="#17202b">to the shared local backend</text>
</g>
<!-- web_api&#45;&gt;override_toggle -->
<g id="edge28" class="edge">
<title>web_api&#45;&gt;override_toggle</title>
<path fill="none" stroke="#596575" d="M554.54,-1220C609.83,-1220 680.08,-1220 680.08,-1220 680.08,-1220 680.08,-1171.94 680.08,-1171.94"/>
<polygon fill="#596575" stroke="#596575" points="682.6,-1171.94 680.08,-1164.74 677.56,-1171.94 682.6,-1171.94"/>
</g>
<!-- override -->
<g id="node11" class="node">
<title>override</title>
<path fill="#ffd6a8" stroke="#c05a00" stroke-width="2" d="M977.51,-794.21C977.51,-794.21 855.99,-760.69 855.99,-760.69 850.2,-759.1 850.2,-755.9 855.99,-754.31 855.99,-754.31 977.51,-720.79 977.51,-720.79 983.3,-719.2 994.86,-719.2 1000.65,-720.79 1000.65,-720.79 1122.17,-754.31 1122.17,-754.31 1127.96,-755.9 1127.96,-759.1 1122.17,-760.69 1122.17,-760.69 1000.65,-794.21 1000.65,-794.21 994.86,-795.8 983.3,-795.8 977.51,-794.21"/>
<text xml:space="preserve" text-anchor="middle" x="989.08" y="-760.75" font-family="DejaVu Sans" font-size="10.00" fill="#17202b">Emergency local override</text>
<text xml:space="preserve" text-anchor="middle" x="989.08" y="-748" font-family="DejaVu Sans" font-size="10.00" fill="#17202b">FORCE LOCAL enabled?</text>
</g>
<!-- chat_profile&#45;&gt;override -->
<g id="edge5" class="edge">
<title>chat_profile&#45;&gt;override</title>
<path fill="none" stroke="#596575" d="M1155.17,-894C1129.43,-894 1105.29,-894 1105.29,-894 1105.29,-894 1105.29,-774.75 1105.29,-774.75"/>
<polygon fill="#596575" stroke="#596575" points="1107.81,-774.75 1105.29,-767.55 1102.77,-774.75 1107.81,-774.75"/>
</g>
<!-- ai_profile&#45;&gt;override -->
<g id="edge6" class="edge">
<title>ai_profile&#45;&gt;override</title>
<path fill="none" stroke="#596575" d="M860.42,-873.94C860.42,-873.94 860.42,-771.51 860.42,-771.51"/>
<polygon fill="#596575" stroke="#596575" points="862.94,-771.51 860.42,-764.31 857.9,-771.51 862.94,-771.51"/>
</g>
<!-- coder_profile -->
<g id="node9" class="node">
<title>coder_profile</title>
<path fill="#e8e0ff" stroke="#3f4b5b" d="M1070.04,-920.42C1070.04,-920.42 914.12,-920.42 914.12,-920.42 908.12,-920.42 902.12,-914.42 902.12,-908.42 902.12,-908.42 902.12,-879.77 902.12,-879.77 902.12,-873.77 908.12,-867.77 914.12,-867.77 914.12,-867.77 1070.04,-867.77 1070.04,-867.77 1076.04,-867.77 1082.04,-873.77 1082.04,-879.77 1082.04,-879.77 1082.04,-908.42 1082.04,-908.42 1082.04,-914.42 1076.04,-920.42 1070.04,-920.42"/>
<text xml:space="preserve" text-anchor="middle" x="992.08" y="-903.72" font-family="DejaVu Sans" font-size="10.00" fill="#17202b">Hermes coder profile</text>
<text xml:space="preserve" text-anchor="middle" x="992.08" y="-890.97" font-family="DejaVu Sans" font-size="10.00" fill="#17202b">Managed and available</text>
<text xml:space="preserve" text-anchor="middle" x="992.08" y="-878.22" font-family="DejaVu Sans" font-size="10.00" fill="#17202b">Not normal chat&#45;command route</text>
</g>
<!-- coder_profile&#45;&gt;override -->
<g id="edge7" class="edge">
<title>coder_profile&#45;&gt;override</title>
<path fill="none" stroke="#596575" stroke-dasharray="5,2" d="M992.08,-867.44C992.08,-867.44 992.08,-806.28 992.08,-806.28"/>
<polygon fill="#596575" stroke="#596575" points="994.6,-806.28 992.08,-799.08 989.56,-806.28 994.6,-806.28"/>
<text xml:space="preserve" text-anchor="middle" x="1059.95" y="-820.1" font-family="DejaVu Sans" font-size="9.00" fill="#3f4b5b">when a coder consumer uses it</text>
</g>
<!-- manager -->
<g id="node10" class="node">
<title>manager</title>
<path fill="#e4f5e9" stroke="#3f4b5b" d="M742.29,-1068.95C742.29,-1068.95 617.88,-1068.95 617.88,-1068.95 611.88,-1068.95 605.88,-1062.95 605.88,-1056.95 605.88,-1056.95 605.88,-1002.8 605.88,-1002.8 605.88,-996.8 611.88,-990.8 617.88,-990.8 617.88,-990.8 742.29,-990.8 742.29,-990.8 748.29,-990.8 754.29,-996.8 754.29,-1002.8 754.29,-1002.8 754.29,-1056.95 754.29,-1056.95 754.29,-1062.95 748.29,-1068.95 742.29,-1068.95"/>
<text xml:space="preserve" text-anchor="middle" x="680.08" y="-1052.25" font-family="DejaVu Sans" font-size="10.00" fill="#17202b">bot&#45;hermes&#45;manager</text>
<text xml:space="preserve" text-anchor="middle" x="680.08" y="-1039.5" font-family="DejaVu Sans" font-size="10.00" fill="#17202b">Stores route settings</text>
<text xml:space="preserve" text-anchor="middle" x="680.08" y="-1026.75" font-family="DejaVu Sans" font-size="10.00" fill="#17202b">Writes profile YAML</text>
<text xml:space="preserve" text-anchor="middle" x="680.08" y="-1014" font-family="DejaVu Sans" font-size="10.00" fill="#17202b">Restarts affected gateway</text>
<text xml:space="preserve" text-anchor="middle" x="680.08" y="-1001.25" font-family="DejaVu Sans" font-size="10.00" fill="#17202b">Checks health</text>
</g>
<!-- manager&#45;&gt;chat_profile -->
<g id="edge34" class="edge">
<title>manager&#45;&gt;chat_profile</title>
<path fill="none" stroke="#596575" stroke-dasharray="5,2" d="M754.53,-1030C897.36,-1030 1195.85,-1030 1195.85,-1030 1195.85,-1030 1195.85,-923.16 1195.85,-923.16"/>
<polygon fill="#596575" stroke="#596575" points="1198.37,-923.16 1195.85,-915.96 1193.33,-923.16 1198.37,-923.16"/>
<text xml:space="preserve" text-anchor="middle" x="945.46" y="-962.25" font-family="DejaVu Sans" font-size="9.00" fill="#3f4b5b">apply</text>
</g>
<!-- manager&#45;&gt;ai_profile -->
<g id="edge35" class="edge">
<title>manager&#45;&gt;ai_profile</title>
<path fill="none" stroke="#596575" stroke-dasharray="5,2" d="M737.02,-990.6C737.02,-990.6 737.02,-923.15 737.02,-923.15"/>
<polygon fill="#596575" stroke="#596575" points="739.54,-923.15 737.02,-915.95 734.5,-923.15 739.54,-923.15"/>
<text xml:space="preserve" text-anchor="middle" x="773.46" y="-962.25" font-family="DejaVu Sans" font-size="9.00" fill="#3f4b5b">apply</text>
</g>
<!-- manager&#45;&gt;coder_profile -->
<g id="edge36" class="edge">
<title>manager&#45;&gt;coder_profile</title>
<path fill="none" stroke="#596575" stroke-dasharray="5,2" d="M754.67,-1010C834.3,-1010 949.14,-1010 949.14,-1010 949.14,-1010 949.14,-929.4 949.14,-929.4"/>
<polygon fill="#596575" stroke="#596575" points="951.66,-929.4 949.14,-922.2 946.62,-929.4 951.66,-929.4"/>
<text xml:space="preserve" text-anchor="middle" x="859.46" y="-962.25" font-family="DejaVu Sans" font-size="9.00" fill="#3f4b5b">apply</text>
</g>
<!-- alerts -->
<g id="node20" class="node">
<title>alerts</title>
<path fill="#f3e4ff" stroke="#3f4b5b" d="M761.16,-65.4C761.16,-65.4 633,-65.4 633,-65.4 627,-65.4 621,-59.4 621,-53.4 621,-53.4 621,-12 621,-12 621,-6 627,0 633,0 633,0 761.16,0 761.16,0 767.16,0 773.16,-6 773.16,-12 773.16,-12 773.16,-53.4 773.16,-53.4 773.16,-59.4 767.16,-65.4 761.16,-65.4"/>
<text xml:space="preserve" text-anchor="middle" x="697.08" y="-48.7" font-family="DejaVu Sans" font-size="10.00" fill="#17202b">Admin alerts</text>
<text xml:space="preserve" text-anchor="middle" x="697.08" y="-35.95" font-family="DejaVu Sans" font-size="10.00" fill="#17202b">Override enabled/disabled</text>
<text xml:space="preserve" text-anchor="middle" x="697.08" y="-23.2" font-family="DejaVu Sans" font-size="10.00" fill="#17202b">Fallback activated/restored</text>
<text xml:space="preserve" text-anchor="middle" x="697.08" y="-10.45" font-family="DejaVu Sans" font-size="10.00" fill="#17202b">Rejected structured output</text>
</g>
<!-- manager&#45;&gt;alerts -->
<g id="edge37" class="edge">
<title>manager&#45;&gt;alerts</title>
<path fill="none" stroke="#596575" stroke-dasharray="5,2" d="M680.02,-990.48C680.02,-990.48 680.02,-74.48 680.02,-74.48"/>
<polygon fill="#596575" stroke="#596575" points="682.54,-74.48 680.02,-67.28 677.5,-74.48 682.54,-74.48"/>
<text xml:space="preserve" text-anchor="middle" x="714.96" y="-517.98" font-family="DejaVu Sans" font-size="9.00" fill="#3f4b5b">route transition</text>
</g>
<!-- priority -->
<g id="node26" class="node">
<title>priority</title>
<polygon fill="#ffffff" stroke="#3f4b5b" points="634.29,-939.55 401.88,-939.55 401.88,-848.65 640.29,-848.65 640.29,-933.55 634.29,-939.55"/>
<polyline fill="none" stroke="#3f4b5b" points="634.29,-939.55 634.29,-933.55"/>
<polyline fill="none" stroke="#3f4b5b" points="640.29,-933.55 634.29,-933.55"/>
<text xml:space="preserve" text-anchor="middle" x="521.08" y="-922.85" font-family="DejaVu Sans" font-size="10.00" fill="#17202b">Effective routing priority</text>
<text xml:space="preserve" text-anchor="middle" x="521.08" y="-910.1" font-family="DejaVu Sans" font-size="10.00" fill="#17202b">1. Emergency local override</text>
<text xml:space="preserve" text-anchor="middle" x="521.08" y="-897.35" font-family="DejaVu Sans" font-size="10.00" fill="#17202b">2. Directly selected local profile</text>
<text xml:space="preserve" text-anchor="middle" x="521.08" y="-884.6" font-family="DejaVu Sans" font-size="10.00" fill="#17202b">3. OpenAI primary</text>
<text xml:space="preserve" text-anchor="middle" x="521.08" y="-871.85" font-family="DejaVu Sans" font-size="10.00" fill="#17202b">4. Shared local fallback if enabled + allowed</text>
<text xml:space="preserve" text-anchor="middle" x="521.08" y="-859.1" font-family="DejaVu Sans" font-size="10.00" fill="#17202b">5. Otherwise fail closed</text>
</g>
<!-- manager&#45;&gt;priority -->
<g id="edge38" class="edge">
<title>manager&#45;&gt;priority</title>
<path fill="none" stroke="#596575" stroke-dasharray="1,5" d="M623.08,-990.6C623.08,-974.78 623.08,-956.42 623.08,-939.99"/>
</g>
<!-- provider -->
<g id="node12" class="node">
<title>provider</title>
<path fill="#ffffff" stroke="#3f4b5b" d="M1038.5,-663.2C1038.5,-663.2 962,-642.35 962,-642.35 956.21,-640.78 956.21,-637.62 962,-636.05 962,-636.05 1038.5,-615.2 1038.5,-615.2 1044.29,-613.63 1055.87,-613.63 1061.66,-615.2 1061.66,-615.2 1138.16,-636.05 1138.16,-636.05 1143.95,-637.62 1143.95,-640.78 1138.16,-642.35 1138.16,-642.35 1061.66,-663.2 1061.66,-663.2 1055.87,-664.77 1044.29,-664.77 1038.5,-663.2"/>
<text xml:space="preserve" text-anchor="middle" x="1050.08" y="-636.07" font-family="DejaVu Sans" font-size="10.00" fill="#17202b">Profile provider?</text>
</g>
<!-- override&#45;&gt;provider -->
<g id="edge9" class="edge">
<title>override&#45;&gt;provider</title>
<path fill="none" stroke="#596575" d="M1042.08,-731.25C1042.08,-731.25 1042.08,-673.28 1042.08,-673.28"/>
<polygon fill="#596575" stroke="#596575" points="1044.6,-673.28 1042.08,-666.08 1039.56,-673.28 1044.6,-673.28"/>
<text xml:space="preserve" text-anchor="middle" x="1024.7" y="-689.05" font-family="DejaVu Sans" font-size="9.00" fill="#3f4b5b">no</text>
</g>
<!-- local -->
<g id="node16" class="node">
<title>local</title>
<path fill="#dcf5df" stroke="#3f4b5b" d="M946.79,-298.7C946.79,-298.7 771.38,-298.7 771.38,-298.7 765.38,-298.7 759.38,-292.7 759.38,-286.7 759.38,-286.7 759.38,-258.05 759.38,-258.05 759.38,-252.05 765.38,-246.05 771.38,-246.05 771.38,-246.05 946.79,-246.05 946.79,-246.05 952.79,-246.05 958.79,-252.05 958.79,-258.05 958.79,-258.05 958.79,-286.7 958.79,-286.7 958.79,-292.7 952.79,-298.7 946.79,-298.7"/>
<text xml:space="preserve" text-anchor="middle" x="859.08" y="-282" font-family="DejaVu Sans" font-size="10.00" fill="#17202b">Local OpenAI&#45;compatible runner</text>
<text xml:space="preserve" text-anchor="middle" x="859.08" y="-269.25" font-family="DejaVu Sans" font-size="10.00" fill="#17202b">Ollama / LM Studio / vLLM</text>
<text xml:space="preserve" text-anchor="middle" x="859.08" y="-256.5" font-family="DejaVu Sans" font-size="10.00" fill="#17202b">Endpoint + model + context window</text>
</g>
<!-- override&#45;&gt;local -->
<g id="edge8" class="edge">
<title>override&#45;&gt;local</title>
<path fill="none" stroke="#c05a00" stroke-width="2" d="M861.92,-751.71C861.92,-751.71 861.92,-309.36 861.92,-309.36"/>
<polygon fill="#c05a00" stroke="#c05a00" stroke-width="2" points="864.44,-309.36 861.92,-302.16 859.4,-309.36 864.44,-309.36"/>
<text xml:space="preserve" text-anchor="middle" x="809.58" y="-517.98" font-family="DejaVu Sans" font-size="9.00" fill="#3f4b5b">yes</text>
</g>
<!-- openai_ok -->
<g id="node13" class="node">
<title>openai_ok</title>
<path fill="#ffffff" stroke="#3f4b5b" d="M1256.58,-557.36C1256.58,-557.36 1146.17,-524.34 1146.17,-524.34 1140.42,-522.62 1140.42,-519.18 1146.17,-517.46 1146.17,-517.46 1256.58,-484.44 1256.58,-484.44 1262.33,-482.72 1273.83,-482.72 1279.58,-484.44 1279.58,-484.44 1389.99,-517.46 1389.99,-517.46 1395.74,-519.18 1395.74,-522.62 1389.99,-524.34 1389.99,-524.34 1279.58,-557.36 1279.58,-557.36 1273.83,-559.08 1262.33,-559.08 1256.58,-557.36"/>
<text xml:space="preserve" text-anchor="middle" x="1268.08" y="-524.15" font-family="DejaVu Sans" font-size="10.00" fill="#17202b">OpenAI credentials and</text>
<text xml:space="preserve" text-anchor="middle" x="1268.08" y="-511.4" font-family="DejaVu Sans" font-size="10.00" fill="#17202b">provider available?</text>
</g>
<!-- provider&#45;&gt;openai_ok -->
<g id="edge11" class="edge">
<title>provider&#45;&gt;openai_ok</title>
<path fill="none" stroke="#596575" d="M1142.2,-636.73C1142.2,-636.73 1142.2,-532.07 1142.2,-532.07"/>
<polygon fill="#596575" stroke="#596575" points="1144.73,-532.07 1142.21,-524.87 1139.69,-532.07 1144.73,-532.07"/>
<text xml:space="preserve" text-anchor="middle" x="1106.33" y="-583.5" font-family="DejaVu Sans" font-size="9.00" fill="#3f4b5b">OpenAI profile</text>
</g>
<!-- provider&#45;&gt;local -->
<g id="edge10" class="edge">
<title>provider&#45;&gt;local</title>
<path fill="none" stroke="#596575" d="M949.33,-639C912.38,-639 879.42,-639 879.42,-639 879.42,-639 879.42,-307.75 879.42,-307.75"/>
<polygon fill="#596575" stroke="#596575" points="881.94,-307.75 879.42,-300.55 876.9,-307.75 881.94,-307.75"/>
<text xml:space="preserve" text-anchor="middle" x="882.96" y="-452.45" font-family="DejaVu Sans" font-size="9.00" fill="#3f4b5b">local profile</text>
</g>
<!-- fallback_ok -->
<g id="node14" class="node">
<title>fallback_ok</title>
<path fill="#ffffff" stroke="#3f4b5b" d="M1049.42,-426.92C1049.42,-426.92 908.58,-392.68 908.58,-392.68 902.75,-391.27 902.75,-388.43 908.58,-387.02 908.58,-387.02 1049.42,-352.78 1049.42,-352.78 1055.25,-351.37 1066.91,-351.37 1072.74,-352.78 1072.74,-352.78 1213.58,-387.02 1213.58,-387.02 1219.41,-388.43 1219.41,-391.27 1213.58,-392.68 1213.58,-392.68 1072.74,-426.92 1072.74,-426.92 1066.91,-428.33 1055.25,-428.33 1049.42,-426.92"/>
<text xml:space="preserve" text-anchor="middle" x="1061.08" y="-393.1" font-family="DejaVu Sans" font-size="10.00" fill="#17202b">Shared local fallback enabled</text>
<text xml:space="preserve" text-anchor="middle" x="1061.08" y="-380.35" font-family="DejaVu Sans" font-size="10.00" fill="#17202b">AND allowed for this profile?</text>
</g>
<!-- openai_ok&#45;&gt;fallback_ok -->
<g id="edge13" class="edge">
<title>openai_ok&#45;&gt;fallback_ok</title>
<path fill="none" stroke="#596575" d="M1179.95,-506.88C1179.95,-506.88 1179.95,-409.84 1179.95,-409.84"/>
<polygon fill="#596575" stroke="#596575" points="1182.48,-409.84 1179.96,-402.64 1177.44,-409.84 1182.48,-409.84"/>
<text xml:space="preserve" text-anchor="middle" x="1147.7" y="-452.45" font-family="DejaVu Sans" font-size="9.00" fill="#3f4b5b">no</text>
</g>
<!-- openai -->
<g id="node15" class="node">
<title>openai</title>
<path fill="#d9f0ff" stroke="#3f4b5b" d="M1435.41,-292.32C1435.41,-292.32 1320.75,-292.32 1320.75,-292.32 1314.75,-292.32 1308.75,-286.32 1308.75,-280.32 1308.75,-280.32 1308.75,-264.43 1308.75,-264.43 1308.75,-258.43 1314.75,-252.43 1320.75,-252.43 1320.75,-252.43 1435.41,-252.43 1435.41,-252.43 1441.41,-252.43 1447.41,-258.43 1447.41,-264.43 1447.41,-264.43 1447.41,-280.32 1447.41,-280.32 1447.41,-286.32 1441.41,-292.32 1435.41,-292.32"/>
<text xml:space="preserve" text-anchor="middle" x="1378.08" y="-275.62" font-family="DejaVu Sans" font-size="10.00" fill="#17202b">OpenAI / Codex backend</text>
<text xml:space="preserve" text-anchor="middle" x="1378.08" y="-262.88" font-family="DejaVu Sans" font-size="10.00" fill="#17202b">Profile&#45;specific model</text>
</g>
<!-- openai_ok&#45;&gt;openai -->
<g id="edge12" class="edge">
<title>openai_ok&#45;&gt;openai</title>
<path fill="none" stroke="#596575" d="M1355.12,-506.83C1355.12,-506.83 1355.12,-301.35 1355.12,-301.35"/>
<polygon fill="#596575" stroke="#596575" points="1357.64,-301.35 1355.12,-294.15 1352.6,-301.35 1357.64,-301.35"/>
<text xml:space="preserve" text-anchor="middle" x="1392.58" y="-386.93" font-family="DejaVu Sans" font-size="9.00" fill="#3f4b5b">yes</text>
</g>
<!-- fallback_ok&#45;&gt;local -->
<g id="edge14" class="edge">
<title>fallback_ok&#45;&gt;local</title>
<path fill="none" stroke="#596575" d="M927.85,-382.14C927.85,-382.14 927.85,-307.43 927.85,-307.43"/>
<polygon fill="#596575" stroke="#596575" points="930.37,-307.43 927.85,-300.23 925.33,-307.43 930.37,-307.43"/>
<text xml:space="preserve" text-anchor="middle" x="964.58" y="-321.4" font-family="DejaVu Sans" font-size="9.00" fill="#3f4b5b">yes</text>
</g>
<!-- failed -->
<g id="node17" class="node">
<title>failed</title>
<path fill="#ffe0e0" stroke="#a33a3a" d="M1109.28,-292.32C1109.28,-292.32 1002.87,-292.32 1002.87,-292.32 996.87,-292.32 990.87,-286.32 990.87,-280.32 990.87,-280.32 990.87,-264.43 990.87,-264.43 990.87,-258.43 996.87,-252.43 1002.87,-252.43 1002.87,-252.43 1109.28,-252.43 1109.28,-252.43 1115.28,-252.43 1121.28,-258.43 1121.28,-264.43 1121.28,-264.43 1121.28,-280.32 1121.28,-280.32 1121.28,-286.32 1115.28,-292.32 1109.28,-292.32"/>
<text xml:space="preserve" text-anchor="middle" x="1056.08" y="-275.62" font-family="DejaVu Sans" font-size="10.00" fill="#17202b">Fail closed</text>
<text xml:space="preserve" text-anchor="middle" x="1056.08" y="-262.88" font-family="DejaVu Sans" font-size="10.00" fill="#17202b">No silent route change</text>
</g>
<!-- fallback_ok&#45;&gt;failed -->
<g id="edge15" class="edge">
<title>fallback_ok&#45;&gt;failed</title>
<path fill="none" stroke="#596575" d="M1056.08,-350.73C1056.08,-350.73 1056.08,-301.26 1056.08,-301.26"/>
<polygon fill="#596575" stroke="#596575" points="1058.6,-301.26 1056.08,-294.06 1053.56,-301.26 1058.6,-301.26"/>
<text xml:space="preserve" text-anchor="middle" x="1064.7" y="-321.4" font-family="DejaVu Sans" font-size="9.00" fill="#3f4b5b">no</text>
</g>
<!-- guard -->
<g id="node18" class="node">
<title>guard</title>
<path fill="#e4f5e9" stroke="#3f4b5b" d="M996.79,-194.8C996.79,-194.8 815.38,-194.8 815.38,-194.8 809.38,-194.8 803.38,-188.8 803.38,-182.8 803.38,-182.8 803.38,-128.65 803.38,-128.65 803.38,-122.65 809.38,-116.65 815.38,-116.65 815.38,-116.65 996.79,-116.65 996.79,-116.65 1002.79,-116.65 1008.79,-122.65 1008.79,-128.65 1008.79,-128.65 1008.79,-182.8 1008.79,-182.8 1008.79,-188.8 1002.79,-194.8 996.79,-194.8"/>
<text xml:space="preserve" text-anchor="middle" x="906.08" y="-178.1" font-family="DejaVu Sans" font-size="10.00" fill="#17202b">bot&#45;engine response parser and guard</text>
<text xml:space="preserve" text-anchor="middle" x="906.08" y="-165.35" font-family="DejaVu Sans" font-size="10.00" fill="#17202b">Recognize final/tool envelopes</text>
<text xml:space="preserve" text-anchor="middle" x="906.08" y="-152.6" font-family="DejaVu Sans" font-size="10.00" fill="#17202b">Execute allowed callback tool</text>
<text xml:space="preserve" text-anchor="middle" x="906.08" y="-139.85" font-family="DejaVu Sans" font-size="10.00" fill="#17202b">Send tool result back to Hermes</text>
<text xml:space="preserve" text-anchor="middle" x="906.08" y="-127.1" font-family="DejaVu Sans" font-size="10.00" fill="#17202b">Only final chat&#45;safe text is published</text>
</g>
<!-- openai&#45;&gt;guard -->
<g id="edge16" class="edge">
<title>openai&#45;&gt;guard</title>
<path fill="none" stroke="#596575" d="M1378.08,-251.95C1378.08,-221.82 1378.08,-169 1378.08,-169 1378.08,-169 1017.79,-169 1017.79,-169"/>
<polygon fill="#596575" stroke="#596575" points="1017.79,-166.48 1010.59,-169 1017.79,-171.52 1017.79,-166.48"/>
</g>
<!-- local&#45;&gt;guard -->
<g id="edge17" class="edge">
<title>local&#45;&gt;guard</title>
<path fill="none" stroke="#596575" d="M881.08,-245.61C881.08,-245.61 881.08,-203.91 881.08,-203.91"/>
<polygon fill="#596575" stroke="#596575" points="883.6,-203.91 881.08,-196.71 878.56,-203.91 883.6,-203.91"/>
</g>
<!-- failed&#45;&gt;guard -->
<g id="edge18" class="edge">
<title>failed&#45;&gt;guard</title>
<path fill="none" stroke="#596575" d="M999.83,-252.06C999.83,-252.06 999.83,-203.85 999.83,-203.85"/>
<polygon fill="#596575" stroke="#596575" points="1002.35,-203.85 999.83,-196.65 997.31,-203.85 1002.35,-203.85"/>
<text xml:space="preserve" text-anchor="middle" x="1028.58" y="-217.5" font-family="DejaVu Sans" font-size="9.00" fill="#3f4b5b">explicit failure</text>
</g>
<!-- guard&#45;&gt;chat_profile -->
<g id="edge20" class="edge">
<title>guard&#45;&gt;chat_profile</title>
<path fill="none" stroke="#596575" stroke-dasharray="5,2" d="M1009,-143C1170.54,-143 1465.41,-143 1465.41,-143 1465.41,-143 1465.41,-894 1465.41,-894 1465.41,-894 1285.79,-894 1285.79,-894"/>
<polygon fill="#596575" stroke="#596575" points="1285.79,-891.48 1278.59,-894 1285.79,-896.52 1285.79,-891.48"/>
<text xml:space="preserve" text-anchor="middle" x="956.46" y="-517.98" font-family="DejaVu Sans" font-size="9.00" fill="#3f4b5b">tool result loop</text>
</g>
<!-- guard&#45;&gt;ai_profile -->
<g id="edge21" class="edge">
<title>guard&#45;&gt;ai_profile</title>
<path fill="none" stroke="#596575" stroke-dasharray="5,2" d="M802.99,-169C768.93,-169 739.56,-169 739.56,-169 739.56,-169 739.56,-865.24 739.56,-865.24"/>
<polygon fill="#596575" stroke="#596575" points="737.04,-865.24 739.56,-872.44 742.08,-865.24 737.04,-865.24"/>
<text xml:space="preserve" text-anchor="middle" x="1075.45" y="-517.98" font-family="DejaVu Sans" font-size="9.00" fill="#3f4b5b">tool result loop</text>
</g>
<!-- output -->
<g id="node19" class="node">
<title>output</title>
<path fill="#dceeff" stroke="#3f4b5b" d="M991.54,-52.65C991.54,-52.65 820.62,-52.65 820.62,-52.65 814.62,-52.65 808.62,-46.65 808.62,-40.65 808.62,-40.65 808.62,-24.75 808.62,-24.75 808.62,-18.75 814.62,-12.75 820.62,-12.75 820.62,-12.75 991.54,-12.75 991.54,-12.75 997.54,-12.75 1003.54,-18.75 1003.54,-24.75 1003.54,-24.75 1003.54,-40.65 1003.54,-40.65 1003.54,-46.65 997.54,-52.65 991.54,-52.65"/>
<text xml:space="preserve" text-anchor="middle" x="906.08" y="-35.95" font-family="DejaVu Sans" font-size="10.00" fill="#17202b">Reply through original connection</text>
<text xml:space="preserve" text-anchor="middle" x="906.08" y="-23.2" font-family="DejaVu Sans" font-size="10.00" fill="#17202b">IRC / Discord / Telegram / WhatsApp</text>
</g>
<!-- guard&#45;&gt;output -->
<g id="edge19" class="edge">
<title>guard&#45;&gt;output</title>
<path fill="none" stroke="#596575" d="M906.08,-116.46C906.08,-116.46 906.08,-61.75 906.08,-61.75"/>
<polygon fill="#596575" stroke="#596575" points="908.6,-61.75 906.08,-54.55 903.56,-61.75 908.6,-61.75"/>
</g>
<!-- guard&#45;&gt;alerts -->
<g id="edge22" class="edge">
<title>guard&#45;&gt;alerts</title>
<path fill="none" stroke="#596575" stroke-dasharray="5,2" d="M803,-143C782.05,-143 766.27,-143 766.27,-143 766.27,-143 766.27,-74.51 766.27,-74.51"/>
<polygon fill="#596575" stroke="#596575" points="768.79,-74.51 766.27,-67.31 763.75,-74.51 768.79,-74.51"/>
<text xml:space="preserve" text-anchor="middle" x="806.46" y="-88.1" font-family="DejaVu Sans" font-size="9.00" fill="#3f4b5b">invalid protocol output</text>
</g>
<!-- profile_settings&#45;&gt;manager -->
<g id="edge29" class="edge">
<title>profile_settings&#45;&gt;manager</title>
<path fill="none" stroke="#596575" d="M839.21,-1109.62C839.21,-1083.95 839.21,-1049 839.21,-1049 839.21,-1049 763.23,-1049 763.23,-1049"/>
<polygon fill="#596575" stroke="#596575" points="763.23,-1046.48 756.03,-1049 763.23,-1051.52 763.23,-1046.48"/>
</g>
<!-- local_profile&#45;&gt;manager -->
<g id="edge30" class="edge">
<title>local_profile&#45;&gt;manager</title>
<path fill="none" stroke="#596575" d="M94.08,-1109.5C94.08,-1072.43 94.08,-1010 94.08,-1010 94.08,-1010 596.85,-1010 596.85,-1010"/>
<polygon fill="#596575" stroke="#596575" points="596.85,-1012.52 604.05,-1010 596.85,-1007.48 596.85,-1012.52"/>
</g>
<!-- fallback_settings&#45;&gt;manager -->
<g id="edge31" class="edge">
<title>fallback_settings&#45;&gt;manager</title>
<path fill="none" stroke="#596575" d="M304.08,-1109.46C304.08,-1077.97 304.08,-1030 304.08,-1030 304.08,-1030 597.08,-1030 597.08,-1030"/>
<polygon fill="#596575" stroke="#596575" points="597.08,-1032.52 604.28,-1030 597.08,-1027.48 597.08,-1032.52"/>
</g>
<!-- fallback_toggle&#45;&gt;manager -->
<g id="edge32" class="edge">
<title>fallback_toggle&#45;&gt;manager</title>
<path fill="none" stroke="#596575" d="M489.08,-1116.03C489.08,-1090.25 489.08,-1049 489.08,-1049 489.08,-1049 596.7,-1049 596.7,-1049"/>
<polygon fill="#596575" stroke="#596575" points="596.7,-1051.52 603.9,-1049 596.7,-1046.48 596.7,-1051.52"/>
</g>
<!-- override_toggle&#45;&gt;manager -->
<g id="edge33" class="edge">
<title>override_toggle&#45;&gt;manager</title>
<path fill="none" stroke="#596575" d="M680.08,-1109.15C680.08,-1109.15 680.08,-1078.12 680.08,-1078.12"/>
<polygon fill="#596575" stroke="#596575" points="682.6,-1078.12 680.08,-1070.92 677.56,-1078.12 682.6,-1078.12"/>
</g>
</g>
</svg>
